<?xml version="1.0" encoding="UTF-8"?><svg id="Layer_2" xmlns="http://www.w3.org/2000/svg" viewBox="0 0 723.58 100.95"><defs><style>.cls-1{fill:#fff;stroke-width:0px;}</style></defs><g id="Outlined"><path class="cls-1" d="m62.29.86c-.7-1.15-2.56-1.15-3.26,0l-18.22,30.14L.28,98.06c-.36.6-.37,1.31-.03,1.92.34.61.96.97,1.66.97h10.08l10.4-16.2,32.61-52.4,3.91-6.29c.1-.16.21-.29.35-.41l5.53-9.1s2.76-6.99,8.39,2.32L62.29.86Z"/><path class="cls-1" d="m68.93,45.37l-8.26-13.01L16.91,100.95h15.07l26.8-42.38s.08-.08.11-.13l6.11-9.73s1.25-1.26,2.76-1.58c1.08-.23,2.29.03,3.28,1.58l-2.12-3.34Z"/><path class="cls-1" d="m105.9,95.51l-7.12-11.85c.53.84.46,2.56-.02,3.43-.48.87-1.36,1.39-2.36,1.39h-51.22l-7.75,12.48h61.72c9.87,0,6.75-5.44,6.75-5.44Z"/><path class="cls-1" d="m121.04,98.06l-16.58-27.43-31.28-51.76c-5.63-9.31-8.39-2.32-8.39-2.32l-5.53,9.1c.9-.79,2.49-.66,3.15.41,0,0,33.38,53.57,33.4,53.57l10.09,15.88s3.12,5.44-6.75,5.44h20.26c.7,0,1.32-.36,1.66-.97.34-.61.33-1.32-.03-1.92Z"/><path class="cls-1" d="m95.81,79.63s.41.68.43.68l-.43-.68Z"/><path class="cls-1" d="m93.39,83.87l-22.34-35.16c-.99-1.55-2.2-1.81-3.28-1.58-1.51.32-2.76,1.58-2.76,1.58l-6.11,9.73c.46-.6,1.22-.87,1.96-.81.66.05,1.3.36,1.67.94l4.12,6.48h0l9.7,15.26s2.75,3.44-4.45,3.94h21.28c.12,0,.19-.07.22-.13.03-.06.06-.15,0-.26Z"/><path class="cls-1" d="m76.35,80.31l-9.7-15.26h0l2.31,3.64c.39.62.42,1.4.07,2.04-.35.64-1.03,1.04-1.76,1.04h-11.72l-7.75,12.48h24.1c7.2-.51,4.45-3.94,4.45-3.94Z"/><path class="cls-1" d="m194.23,75.26h-19.23l-3.09,9h-14.36l19.71-51.79h14.7l19.71,51.79h-14.36l-3.09-9Zm-3.57-10.24l-6.04-17.24-6.04,17.24h12.09Z"/><path class="cls-1" d="m224.46,32.46h19.92c3.53,0,6.83.71,9.93,2.13,3.09,1.42,5.79,3.31,8.11,5.67,2.31,2.36,4.13,5.11,5.46,8.24,1.33,3.14,1.99,6.42,1.99,9.86s-.65,6.65-1.96,9.79c-1.31,3.14-3.11,5.9-5.43,8.28-2.31,2.38-5.01,4.28-8.11,5.7-3.09,1.42-6.42,2.13-9.99,2.13h-19.92v-51.79Zm13.46,40.39h3.09c2.34,0,4.42-.37,6.25-1.1,1.83-.73,3.38-1.74,4.64-3.02,1.26-1.28,2.22-2.8,2.88-4.57.66-1.76,1-3.7,1-5.8s-.34-3.98-1.03-5.77-1.66-3.32-2.92-4.6c-1.26-1.28-2.81-2.29-4.64-3.02-1.83-.73-3.89-1.1-6.18-1.1h-3.09v28.99Z"/><path class="cls-1" d="m329.01,84.26h-13.46v-51.79h21.43c5.82,0,10.27,1.51,13.36,4.53,3.09,3.02,4.64,7.28,4.64,12.78s-1.55,9.75-4.64,12.78c-3.09,3.02-7.55,4.53-13.36,4.53h-7.97v17.17Zm0-28.03h4.46c4.95,0,7.42-2.15,7.42-6.46s-2.47-6.46-7.42-6.46h-4.46v12.91Z"/><path class="cls-1" d="m366.65,58.36c0-3.85.71-7.43,2.13-10.75,1.42-3.32,3.39-6.22,5.91-8.69,2.52-2.47,5.53-4.41,9.03-5.8,3.5-1.4,7.36-2.09,11.57-2.09s8.01.7,11.54,2.09c3.53,1.4,6.56,3.33,9.1,5.8,2.54,2.47,4.52,5.37,5.94,8.69,1.42,3.32,2.13,6.9,2.13,10.75s-.71,7.43-2.13,10.75c-1.42,3.32-3.4,6.22-5.94,8.69-2.54,2.47-5.58,4.41-9.1,5.8-3.53,1.4-7.37,2.09-11.54,2.09s-8.07-.7-11.57-2.09c-3.5-1.4-6.52-3.33-9.03-5.8-2.52-2.47-4.49-5.37-5.91-8.69-1.42-3.32-2.13-6.9-2.13-10.75Zm14.08,0c0,2.06.39,3.96,1.17,5.7.78,1.74,1.83,3.25,3.16,4.53,1.33,1.28,2.87,2.28,4.64,2.99,1.76.71,3.63,1.06,5.6,1.06s3.83-.35,5.6-1.06c1.76-.71,3.32-1.71,4.67-2.99,1.35-1.28,2.42-2.79,3.19-4.53.78-1.74,1.17-3.64,1.17-5.7s-.39-3.96-1.17-5.7c-.78-1.74-1.84-3.25-3.19-4.53-1.35-1.28-2.91-2.28-4.67-2.99-1.76-.71-3.63-1.07-5.6-1.07s-3.84.36-5.6,1.07c-1.76.71-3.31,1.71-4.64,2.99-1.33,1.28-2.38,2.79-3.16,4.53-.78,1.74-1.17,3.64-1.17,5.7Z"/><path class="cls-1" d="m452.86,84.26h-13.46v-51.79h21.43c5.82,0,10.27,1.51,13.36,4.53s4.64,7.28,4.64,12.78-1.55,9.75-4.64,12.78-7.54,4.53-13.36,4.53h-7.97v17.17Zm0-28.03h4.46c4.95,0,7.42-2.15,7.42-6.46s-2.47-6.46-7.42-6.46h-4.46v12.91Z"/><path class="cls-1" d="m506.3,32.46v28.16c0,1.51.06,3.06.17,4.64.11,1.58.46,3.01,1.03,4.29.57,1.28,1.48,2.33,2.71,3.12,1.24.8,2.98,1.2,5.22,1.2s3.97-.4,5.19-1.2c1.21-.8,2.12-1.84,2.71-3.12.59-1.28.95-2.71,1.07-4.29.11-1.58.17-3.13.17-4.64v-28.16h13.39v30.02c0,8.06-1.84,13.94-5.53,17.65-3.69,3.71-9.35,5.56-17,5.56s-13.33-1.85-17.04-5.56-5.56-9.59-5.56-17.65v-30.02h13.46Z"/><path class="cls-1" d="m569.15,32.46v40.39h16.14v11.4h-29.61v-51.79h13.46Z"/><path class="cls-1" d="m611.61,32.46v28.16c0,1.51.06,3.06.17,4.64.11,1.58.46,3.01,1.03,4.29.57,1.28,1.48,2.33,2.71,3.12,1.24.8,2.98,1.2,5.22,1.2s3.97-.4,5.19-1.2c1.21-.8,2.12-1.84,2.71-3.12.59-1.28.95-2.71,1.07-4.29.11-1.58.17-3.13.17-4.64v-28.16h13.39v30.02c0,8.06-1.84,13.94-5.53,17.65-3.69,3.71-9.35,5.56-17,5.56s-13.33-1.85-17.04-5.56-5.56-9.59-5.56-17.65v-30.02h13.46Z"/><path class="cls-1" d="m658.66,84.26l8.79-51.79h13.33l10.37,27.61,10.3-27.61h13.33l8.79,51.79h-13.4l-4.46-29.81-12.23,29.81h-5.36l-11.61-29.81-4.46,29.81h-13.4Z"/></g></svg>